<svg height="682.66669" viewBox="0 0 682.66669 682.66669" width="682.66669" xmlns="http://www.w3.org/2000/svg">
  <g transform="matrix(1.3333333 0 0 -1.3333333 0 682.66667)">
    <path fill="#fff" d="m0 0c0-141.385-114.615-256-256-256s-256 114.615-256 256 114.615 256 256 256 256-114.615 256-256" transform="translate(512 256)"/>
    <path fill="#88c5cc" d="m0 0c0 7.354-1.991 13.684-5.968 18.996-3.977 5.31-8.596 9.017-13.861 11.117-7.019 2.803-13.862 4.348-20.53 4.639-6.669.291-15.561.439-26.673.439h-11.581v-78.086h19.302c11.463 0 20.91.699 28.338 2.1s13.658 4.203 18.69 8.403c4.327 3.735 7.456 8.201 9.386 13.394 1.932 5.193 2.897 11.526 2.897 18.998m69.663 1.5c0-11.699-2.049-23.135-6.142-34.306-4.095-11.172-9.944-20.56-17.546-28.163-10.413-10.296-22.024-18.075-34.832-23.338-12.811-5.264-28.75-7.897-47.818-7.897h-41.938v-85.105h-67.382v261.282h110.898c16.611 0 30.621-1.434 42.027-4.3 11.407-2.867 21.497-7.167 30.269-12.897 10.53-6.904 18.571-15.735 24.129-26.497 5.555-10.763 8.335-23.688 8.335-38.779" transform="translate(315.166 302.668)"/>
  </g>
</svg>
